<mxfile host="app.diagrams.net" modified="2022-08-17T13:16:33.067Z" agent="5.0 (Windows NT 10.0; Win64; x64) AppleWebKit/537.36 (KHTML, like Gecko) Chrome/104.0.0.0 Safari/537.36" etag="zEPdfNjVnLhvYN0QIi2f" version="20.2.4" type="github">
  <diagram id="kgpKYQtTHZ0yAKxKKP6v" name="Page-1">
    <mxGraphModel dx="1253" dy="724" grid="1" gridSize="10" guides="1" tooltips="1" connect="1" arrows="1" fold="1" page="1" pageScale="1" pageWidth="850" pageHeight="1100" math="0" shadow="0">
      <root>
        <mxCell id="0" />
        <mxCell id="1" parent="0" />
        <mxCell id="9gF42xAiou03XkC2jGrQ-30" value="" style="rounded=0;whiteSpace=wrap;html=1;" vertex="1" parent="1">
          <mxGeometry x="30" y="20" width="960" height="660" as="geometry" />
        </mxCell>
        <mxCell id="9gF42xAiou03XkC2jGrQ-6" value="" style="points=[];perimeter=orthogonalPerimeter;rounded=0;shadow=0;strokeWidth=1;" vertex="1" parent="1">
          <mxGeometry x="75" y="150" width="10" height="30" as="geometry" />
        </mxCell>
        <mxCell id="3nuBFxr9cyL0pnOWT2aG-1" value="登录验证" style="shape=umlLifeline;perimeter=lifelinePerimeter;container=1;collapsible=0;recursiveResize=0;rounded=0;shadow=0;strokeWidth=1;" parent="1" vertex="1">
          <mxGeometry x="120" y="80" width="110" height="540" as="geometry" />
        </mxCell>
        <mxCell id="3nuBFxr9cyL0pnOWT2aG-2" value="" style="points=[];perimeter=orthogonalPerimeter;rounded=0;shadow=0;strokeWidth=1;" parent="3nuBFxr9cyL0pnOWT2aG-1" vertex="1">
          <mxGeometry x="45" y="70" width="10" height="60" as="geometry" />
        </mxCell>
        <mxCell id="3nuBFxr9cyL0pnOWT2aG-3" value="1.用户登入" style="verticalAlign=bottom;startArrow=oval;endArrow=block;startSize=8;shadow=0;strokeWidth=1;" parent="3nuBFxr9cyL0pnOWT2aG-1" target="3nuBFxr9cyL0pnOWT2aG-1" edge="1">
          <mxGeometry relative="1" as="geometry">
            <mxPoint x="-40" y="70" as="sourcePoint" />
            <mxPoint x="20" y="70" as="targetPoint" />
          </mxGeometry>
        </mxCell>
        <mxCell id="9gF42xAiou03XkC2jGrQ-12" value="2.登入结果返回" style="verticalAlign=bottom;endArrow=open;dashed=1;endSize=8;shadow=0;strokeWidth=1;" edge="1" parent="3nuBFxr9cyL0pnOWT2aG-1">
          <mxGeometry relative="1" as="geometry">
            <mxPoint x="-40" y="129.99999999999977" as="targetPoint" />
            <mxPoint x="40" y="130" as="sourcePoint" />
          </mxGeometry>
        </mxCell>
        <mxCell id="9gF42xAiou03XkC2jGrQ-15" value="3.查询数据库信息" style="verticalAlign=bottom;startArrow=oval;endArrow=block;startSize=8;shadow=0;strokeWidth=1;" edge="1" parent="3nuBFxr9cyL0pnOWT2aG-1" target="3nuBFxr9cyL0pnOWT2aG-5">
          <mxGeometry relative="1" as="geometry">
            <mxPoint x="-34.5" y="190" as="sourcePoint" />
            <mxPoint x="55" y="190" as="targetPoint" />
          </mxGeometry>
        </mxCell>
        <mxCell id="9gF42xAiou03XkC2jGrQ-26" value="9.删除一条数据" style="verticalAlign=bottom;startArrow=oval;endArrow=block;startSize=8;shadow=0;strokeWidth=1;" edge="1" parent="3nuBFxr9cyL0pnOWT2aG-1" target="9gF42xAiou03XkC2jGrQ-9">
          <mxGeometry relative="1" as="geometry">
            <mxPoint x="-32.5" y="400" as="sourcePoint" />
            <mxPoint x="550.5" y="400" as="targetPoint" />
          </mxGeometry>
        </mxCell>
        <mxCell id="9gF42xAiou03XkC2jGrQ-27" value="" style="points=[];perimeter=orthogonalPerimeter;rounded=0;shadow=0;strokeWidth=1;" vertex="1" parent="3nuBFxr9cyL0pnOWT2aG-1">
          <mxGeometry x="-40" y="400" width="10" height="50" as="geometry" />
        </mxCell>
        <mxCell id="9gF42xAiou03XkC2jGrQ-28" value="10.返回删除数据结果" style="verticalAlign=bottom;endArrow=open;dashed=1;endSize=8;shadow=0;strokeWidth=1;entryX=1.026;entryY=0.87;entryDx=0;entryDy=0;entryPerimeter=0;exitX=0.5;exitY=0.796;exitDx=0;exitDy=0;exitPerimeter=0;" edge="1" parent="3nuBFxr9cyL0pnOWT2aG-1" source="9gF42xAiou03XkC2jGrQ-9">
          <mxGeometry relative="1" as="geometry">
            <mxPoint x="-29.74000000000001" y="430.0999999999999" as="targetPoint" />
            <mxPoint x="550.5" y="430.0999999999999" as="sourcePoint" />
          </mxGeometry>
        </mxCell>
        <mxCell id="3nuBFxr9cyL0pnOWT2aG-5" value="数据库查询" style="shape=umlLifeline;perimeter=lifelinePerimeter;container=1;collapsible=0;recursiveResize=0;rounded=0;shadow=0;strokeWidth=1;" parent="1" vertex="1">
          <mxGeometry x="300" y="80" width="100" height="540" as="geometry" />
        </mxCell>
        <mxCell id="3nuBFxr9cyL0pnOWT2aG-6" value="" style="points=[];perimeter=orthogonalPerimeter;rounded=0;shadow=0;strokeWidth=1;" parent="3nuBFxr9cyL0pnOWT2aG-5" vertex="1">
          <mxGeometry x="45" y="190" width="10" height="30" as="geometry" />
        </mxCell>
        <mxCell id="9gF42xAiou03XkC2jGrQ-1" value="用户" style="shape=umlActor;verticalLabelPosition=bottom;verticalAlign=top;html=1;outlineConnect=0;" vertex="1" parent="1">
          <mxGeometry x="60" y="30" width="30" height="60" as="geometry" />
        </mxCell>
        <mxCell id="9gF42xAiou03XkC2jGrQ-4" value="数据库修改" style="shape=umlLifeline;perimeter=lifelinePerimeter;container=1;collapsible=0;recursiveResize=0;rounded=0;shadow=0;strokeWidth=1;" vertex="1" parent="1">
          <mxGeometry x="470" y="80" width="100" height="540" as="geometry" />
        </mxCell>
        <mxCell id="9gF42xAiou03XkC2jGrQ-18" value="" style="points=[];perimeter=orthogonalPerimeter;rounded=0;shadow=0;strokeWidth=1;" vertex="1" parent="9gF42xAiou03XkC2jGrQ-4">
          <mxGeometry x="45" y="260" width="10" height="30" as="geometry" />
        </mxCell>
        <mxCell id="9gF42xAiou03XkC2jGrQ-7" value="数据库添加" style="shape=umlLifeline;perimeter=lifelinePerimeter;container=1;collapsible=0;recursiveResize=0;rounded=0;shadow=0;strokeWidth=1;" vertex="1" parent="1">
          <mxGeometry x="620" y="80" width="100" height="540" as="geometry" />
        </mxCell>
        <mxCell id="9gF42xAiou03XkC2jGrQ-9" value="数据库删除" style="shape=umlLifeline;perimeter=lifelinePerimeter;container=1;collapsible=0;recursiveResize=0;rounded=0;shadow=0;strokeWidth=1;" vertex="1" parent="1">
          <mxGeometry x="770" y="80" width="100" height="540" as="geometry" />
        </mxCell>
        <mxCell id="9gF42xAiou03XkC2jGrQ-25" value="" style="points=[];perimeter=orthogonalPerimeter;rounded=0;shadow=0;strokeWidth=1;" vertex="1" parent="9gF42xAiou03XkC2jGrQ-9">
          <mxGeometry x="45" y="400" width="10" height="30" as="geometry" />
        </mxCell>
        <mxCell id="9gF42xAiou03XkC2jGrQ-13" value="" style="points=[];perimeter=orthogonalPerimeter;rounded=0;shadow=0;strokeWidth=1;" vertex="1" parent="1">
          <mxGeometry x="78" y="210" width="10" height="30" as="geometry" />
        </mxCell>
        <mxCell id="9gF42xAiou03XkC2jGrQ-14" value="" style="points=[];perimeter=orthogonalPerimeter;rounded=0;shadow=0;strokeWidth=1;" vertex="1" parent="1">
          <mxGeometry x="78" y="270" width="10" height="50" as="geometry" />
        </mxCell>
        <mxCell id="9gF42xAiou03XkC2jGrQ-16" value="4.返回查询信息" style="verticalAlign=bottom;endArrow=open;dashed=1;endSize=8;shadow=0;strokeWidth=1;entryX=1.026;entryY=0.87;entryDx=0;entryDy=0;entryPerimeter=0;" edge="1" parent="1">
          <mxGeometry relative="1" as="geometry">
            <mxPoint x="88.25999999999999" y="300.1" as="targetPoint" />
            <mxPoint x="349.5" y="300.1" as="sourcePoint" />
          </mxGeometry>
        </mxCell>
        <mxCell id="9gF42xAiou03XkC2jGrQ-17" value="5.修改数据库信息" style="verticalAlign=bottom;startArrow=oval;endArrow=block;startSize=8;shadow=0;strokeWidth=1;" edge="1" parent="1" target="9gF42xAiou03XkC2jGrQ-4">
          <mxGeometry relative="1" as="geometry">
            <mxPoint x="86.5" y="340" as="sourcePoint" />
            <mxPoint x="350.5" y="340" as="targetPoint" />
          </mxGeometry>
        </mxCell>
        <mxCell id="9gF42xAiou03XkC2jGrQ-19" value="" style="points=[];perimeter=orthogonalPerimeter;rounded=0;shadow=0;strokeWidth=1;" vertex="1" parent="1">
          <mxGeometry x="79" y="340" width="10" height="50" as="geometry" />
        </mxCell>
        <mxCell id="9gF42xAiou03XkC2jGrQ-20" value="6.返回结果" style="verticalAlign=bottom;endArrow=open;dashed=1;endSize=8;shadow=0;strokeWidth=1;entryX=1.026;entryY=0.87;entryDx=0;entryDy=0;entryPerimeter=0;" edge="1" parent="1" source="9gF42xAiou03XkC2jGrQ-4">
          <mxGeometry relative="1" as="geometry">
            <mxPoint x="89.25999999999999" y="370.0999999999999" as="targetPoint" />
            <mxPoint x="350.5" y="370.0999999999999" as="sourcePoint" />
          </mxGeometry>
        </mxCell>
        <mxCell id="9gF42xAiou03XkC2jGrQ-21" value="" style="points=[];perimeter=orthogonalPerimeter;rounded=0;shadow=0;strokeWidth=1;" vertex="1" parent="1">
          <mxGeometry x="665" y="410" width="10" height="30" as="geometry" />
        </mxCell>
        <mxCell id="9gF42xAiou03XkC2jGrQ-22" value="7.向数据库添加数据" style="verticalAlign=bottom;startArrow=oval;endArrow=block;startSize=8;shadow=0;strokeWidth=1;" edge="1" parent="1" target="9gF42xAiou03XkC2jGrQ-7">
          <mxGeometry relative="1" as="geometry">
            <mxPoint x="86.5" y="410" as="sourcePoint" />
            <mxPoint x="519.5" y="410" as="targetPoint" />
          </mxGeometry>
        </mxCell>
        <mxCell id="9gF42xAiou03XkC2jGrQ-23" value="" style="points=[];perimeter=orthogonalPerimeter;rounded=0;shadow=0;strokeWidth=1;" vertex="1" parent="1">
          <mxGeometry x="79" y="410" width="10" height="50" as="geometry" />
        </mxCell>
        <mxCell id="9gF42xAiou03XkC2jGrQ-24" value="8.返回添加结果" style="verticalAlign=bottom;endArrow=open;dashed=1;endSize=8;shadow=0;strokeWidth=1;entryX=1.026;entryY=0.87;entryDx=0;entryDy=0;entryPerimeter=0;" edge="1" parent="1" source="9gF42xAiou03XkC2jGrQ-7">
          <mxGeometry relative="1" as="geometry">
            <mxPoint x="89.25999999999999" y="440.0999999999999" as="targetPoint" />
            <mxPoint x="519.5" y="440.0999999999999" as="sourcePoint" />
          </mxGeometry>
        </mxCell>
      </root>
    </mxGraphModel>
  </diagram>
</mxfile>
